<svg width="116" height="146" viewBox="0 0 116 146" fill="none" xmlns="http://www.w3.org/2000/svg">
<path d="M29.5993 125.913V134.644C26.8704 135.265 24.2917 134.857 21.8159 133.848C16.2037 131.561 13.3363 125.949 14.7403 120.143C16.002 114.931 21.3413 111.116 27.2461 111.207C35.5437 111.334 40.0406 115.339 40.27 122.949C40.3847 126.725 40.2897 130.504 40.2897 134.351H30.7938C30.7938 132.146 30.7938 129.97 30.7938 127.793C30.7938 126.198 30.861 124.603 30.7661 123.012C30.6553 121.081 29.0456 119.823 27.0958 120.009C25.1064 120.199 23.7301 121.873 24.0149 123.756C24.2838 125.545 26.0042 126.594 28.1043 126.242C28.5631 126.163 29.014 126.044 29.5954 125.913H29.5993Z" fill="black"/>
<path d="M77.2375 125.89V134.568C70.6247 136.243 63.2051 131.486 62.2678 125.09C60.8281 115.299 70.3241 108.488 80.6705 112.046C85.5747 113.732 87.7104 117.5 87.9358 122.126C88.1296 126.131 87.9754 130.148 87.9754 134.291H78.598C78.598 131.133 78.6099 128.015 78.5901 124.896C78.5862 124.132 78.5624 123.349 78.4003 122.605C77.985 120.709 76.407 119.696 74.5204 120.04C72.7209 120.369 71.4157 122.059 71.6965 123.701C72.0129 125.553 73.6226 126.582 75.7425 126.266C76.2013 126.198 76.6443 126.044 77.2415 125.89H77.2375Z" fill="black"/>
<path d="M48.8009 111.639H58.115C58.1664 112.086 58.2574 112.501 58.2574 112.917C58.2653 118.96 58.3128 125.007 58.2455 131.05C58.1941 135.558 56.9601 139.678 52.8074 142.531C49.058 145.103 44.8617 145.559 40.4361 144.411C40.0129 144.3 39.4434 143.746 39.4276 143.382C39.3366 140.98 39.3801 138.577 39.3801 136.049C40.3926 136.326 41.2231 136.599 42.0774 136.785C45.1188 137.442 47.4523 136.27 48.2512 133.496C48.6427 132.139 48.7574 130.678 48.7733 129.261C48.8326 124.041 48.797 118.821 48.797 113.601C48.797 113.008 48.797 112.414 48.797 111.639H48.8009Z" fill="black"/>
<path d="M93.1762 134.299C93.1762 132.495 93.1644 130.694 93.1762 128.893C93.2 126.091 93.0694 123.274 93.3146 120.488C93.9198 113.645 99.3895 110.012 106.817 111.437V120.29C103.202 120.052 102.68 120.519 102.68 123.966C102.68 127.37 102.68 130.773 102.68 134.299H93.1762Z" fill="black"/>
<path d="M53.2147 109.656C50.3474 109.636 48.5439 108.029 48.5913 105.532C48.6348 103.296 50.7429 101.408 53.2227 101.389C55.742 101.369 57.9608 103.348 57.9687 105.619C57.9766 108.029 56.0426 109.672 53.2108 109.652L53.2147 109.656Z" fill="black"/>
<path d="M25.059 41.4122H4.65506V47.5424H25.059V41.4122Z" fill="#EC1E24"/>
<path d="M115 32.3257C114.96 32.8045 115 33.2636 114.869 33.6752C114.43 35.0484 114.039 36.5523 112.255 36.9362C110.495 37.3161 109.336 36.3109 108.356 35.1276C103.981 29.8403 98.0211 29.3694 91.5942 30.5012C86.338 31.4273 81.1134 32.4919 75.8691 33.4575C72.7565 34.0314 69.723 33.9562 66.8793 32.4048C66.3929 32.1397 65.7601 32.0922 65.1866 31.9893C62.4814 31.5065 60.5355 29.4011 60.6067 27.0186C60.6818 24.5649 62.8136 22.4635 65.5504 22.139C67.9907 21.8501 70.3044 23.3935 71.0005 25.9422C71.4078 27.4342 72.3768 28.008 73.9311 28.0436C77.4629 28.1307 80.7575 27.2205 83.9531 25.962C88.9444 23.9951 94.0187 22.3012 99.4212 21.5454C107.066 20.4729 113.367 24.2127 114.767 30.7229C114.881 31.2611 114.929 31.8072 115.004 32.3178L115 32.3257Z" fill="black"/>
<path d="M61.1762 16.9546C54.8403 19.341 51.1779 23.0651 51.1067 29.1597C51.0355 35.282 55.0103 38.7409 60.4999 41.2816C56.5923 41.8752 53.4244 40.4307 50.7073 38.0483C46.594 34.4469 45.5183 28.7679 47.8715 23.9278C50.114 19.3173 55.1962 16.5233 61.1762 16.9546Z" fill="black"/>
<path d="M58.0596 68.2522C58.0596 67.1559 58.1704 66.0438 58.024 64.9634C57.9054 64.0888 57.6404 63.1549 57.146 62.4188C55.8607 60.5073 56.0505 58.1248 57.7709 56.7357C59.4558 55.3783 62.1491 55.4218 63.7944 56.8347C65.5346 58.3267 65.6493 60.535 64.2374 62.5098C63.7825 63.143 63.482 63.9859 63.4503 64.7458C63.3514 67.1005 63.3594 69.4671 63.4345 71.8218C63.4741 73.0447 63.1656 73.6107 61.6627 73.5552C57.5613 73.4009 58.1229 74.1251 58.0636 70.2309C58.0517 69.574 58.0636 68.9131 58.0636 68.2561L58.0596 68.2522Z" fill="#EC1E24"/>
<path d="M73.0571 22.3764C72.8277 21.395 72.2898 19.7328 70.8818 18.1656C68.5602 15.5813 65.4081 14.9402 63.4108 14.5603C57.237 13.377 51.9373 15.0431 47.8755 19.5033C43.8058 23.9753 42.6193 29.1082 45.1228 34.5735C47.6738 40.1339 52.3881 43.5255 58.9495 43.8065C61.3502 43.9094 63.5334 43.5373 65.4832 42.7458C67.2748 42.0137 69.0071 40.122 72.5745 36.5365C72.9582 36.1486 73.2746 35.8281 73.4763 35.6183C75.9126 35.6223 78.3884 35.6064 80.9038 35.5708C83.1938 35.5352 85.4521 35.4838 87.6748 35.4165C87.6748 36.4336 87.6748 37.0232 87.6748 37.609C87.6748 51.2506 87.6748 64.8922 87.6748 78.5338C87.6748 82.424 85.8239 84.1297 81.592 84.1297C67.4686 84.1337 53.3492 84.1297 39.2259 84.1297C35.2471 84.1297 33.7877 82.8277 33.7877 79.2145C33.7798 54.5155 33.8193 29.8205 33.7363 5.12158C33.7363 2.22071 35.7138 -0.0350797 39.3603 0.00053808C53.9583 0.146967 68.5563 0.0599011 83.1542 0.0599011C83.704 0.0599011 85.46 0.0519859 86.5872 1.12448C87.2595 1.7656 87.4929 2.58481 87.5561 2.80643C87.7064 3.33674 87.7025 3.77207 87.7025 5.98828V22.3764C85.1752 22.3606 82.6322 22.3527 80.0733 22.3527C77.72 22.3527 75.3826 22.3606 73.061 22.3764H73.0571ZM56.8929 69.4077C56.8929 70.7295 56.9443 72.0514 56.8771 73.3692C56.8138 74.5525 57.2607 75.1105 58.6133 75.0433C59.9818 74.9799 61.3581 74.972 62.7226 75.0433C64.2453 75.1264 64.7001 74.4773 64.6606 73.1634C64.5894 70.967 64.6962 68.7626 64.621 66.5623C64.5775 65.2523 64.8781 64.1957 65.7996 63.1034C67.8127 60.7051 67.2788 57.3333 64.8148 55.3862C62.4022 53.4826 58.8467 53.542 56.4895 55.5287C54.0848 57.5549 53.8594 60.7922 55.7262 63.325C56.3708 64.1996 56.6477 65.3671 56.8573 66.4396C57.0432 67.4013 56.8969 68.4144 56.8969 69.4038L56.8929 69.4077ZM80.5241 79.6459C82.8853 79.6379 84.8351 77.865 84.8628 75.6923C84.8905 73.484 82.8418 71.5725 80.4648 71.5883C78.1116 71.6042 76.2092 73.3771 76.1815 75.5815C76.1538 77.8848 78.0443 79.6538 80.5241 79.6459ZM40.8395 12.9575C43.2837 12.9773 45.2928 11.141 45.2691 8.90894C45.2493 6.79166 43.2323 4.92766 40.9305 4.896C38.5258 4.86039 36.5246 6.72834 36.5404 8.98413C36.5562 11.1687 38.4704 12.9377 40.8395 12.9575ZM41.0372 79.9783C43.4221 79.9545 45.3126 78.2014 45.3245 76.001C45.3403 73.7373 43.347 71.8891 40.9305 71.9208C38.6286 71.9485 36.6116 73.8204 36.5958 75.9377C36.5799 78.1539 38.6089 80.002 41.0372 79.9783ZM84.6967 8.58047C84.6809 6.37612 82.7904 4.59919 80.4332 4.57149C78.072 4.54378 75.9679 6.48297 75.9956 8.65962C76.0273 10.8956 78.0562 12.6805 80.5083 12.629C82.8853 12.5776 84.7125 10.8125 84.6967 8.58047Z" fill="#EC1E24"/>
<path d="M27.1907 10.4406H24.0742V76.6896H27.1907V10.4406Z" fill="#EC1E24"/>
<path d="M6.20541 32.5671L14.5584 26.5279H25.059V32.5671H6.20541Z" fill="#EC1E24"/>
<path d="M25.059 54.567H0V60.6972H25.059V54.567Z" fill="#EC1E24"/>
<path d="M80.3461 10.4405C81.4492 10.4405 82.3434 9.6166 82.3434 8.60026C82.3434 7.58392 81.4492 6.76001 80.3461 6.76001C79.2431 6.76001 78.3489 7.58392 78.3489 8.60026C78.3489 9.6166 79.2431 10.4405 80.3461 10.4405Z" fill="#EC1E24"/>
<path d="M40.9028 10.769C42.0058 10.769 42.9001 9.9451 42.9001 8.92875C42.9001 7.91241 42.0058 7.0885 40.9028 7.0885C39.7997 7.0885 38.9055 7.91241 38.9055 8.92875C38.9055 9.9451 39.7997 10.769 40.9028 10.769Z" fill="#EC1E24"/>
<path d="M80.3264 77.6236C81.4294 77.6236 82.3237 76.7997 82.3237 75.7834C82.3237 74.767 81.4294 73.9431 80.3264 73.9431C79.2233 73.9431 78.3291 74.767 78.3291 75.7834C78.3291 76.7997 79.2233 77.6236 80.3264 77.6236Z" fill="#EC1E24"/>
<path d="M40.883 77.956C41.9861 77.956 42.8803 77.1321 42.8803 76.1158C42.8803 75.0994 41.9861 74.2755 40.883 74.2755C39.7799 74.2755 38.8857 75.0994 38.8857 76.1158C38.8857 77.1321 39.7799 77.956 40.883 77.956Z" fill="#EC1E24"/>
</svg>
