<svg width="44" height="44" viewBox="0 0 44 44" fill="none" xmlns="http://www.w3.org/2000/svg">
<g clip-path="url(#clip0_214_5942)">
<path d="M43.8515 21.9257C43.8515 9.81623 34.0352 0 21.9257 0C9.81623 0 0 9.81623 0 21.9257C0 32.8691 8.0167 41.9415 18.4988 43.5851V28.2631H12.9313V21.9257H18.4988V17.0956C18.4988 11.5995 21.7731 8.56565 26.7819 8.56565C29.1823 8.56565 31.69 8.99442 31.69 8.99442V14.3898H28.9257C26.2037 14.3898 25.3526 16.0789 25.3526 17.8134V21.9257H31.4334L30.4621 28.2631H25.3526V43.5851C35.8348 41.9415 43.8515 32.8691 43.8515 21.9257Z" fill="#000505"/>
<path d="M30.4591 28.2631L31.4303 21.9258H25.3496V17.8135C25.3496 16.0789 26.1974 14.3898 28.9226 14.3898H31.6869V8.99444C31.6869 8.99444 29.1793 8.56567 26.7788 8.56567C21.77 8.56567 18.4957 11.5995 18.4957 17.0956V21.9258H12.9282V28.2631H18.4957V43.5851C19.6131 43.7605 20.7565 43.8515 21.9226 43.8515C23.0888 43.8515 24.2322 43.7605 25.3496 43.5851V28.2631H30.4591Z" fill="white"/>
</g>
<defs>
<clipPath id="clip0_214_5942">
<rect width="43.8515" height="43.8515" fill="white"/>
</clipPath>
</defs>
</svg>
