<svg width="44" height="44" viewBox="0 0 44 44" fill="none" xmlns="http://www.w3.org/2000/svg">
<g clip-path="url(#clip0_214_5945)">
<path d="M21.975 43.8515C34.0843 43.8515 43.9008 34.035 43.9008 21.9257C43.9008 9.81648 34.0843 0 21.975 0C9.8658 0 0.0493164 9.81648 0.0493164 21.9257C0.0493164 34.035 9.8658 43.8515 21.975 43.8515Z" fill="#000505"/>
<path d="M21.9748 10.6088C25.6616 10.6088 26.0969 10.6218 27.5521 10.69C28.8969 10.7517 29.6277 10.9758 30.115 11.1642C30.7581 11.4143 31.2194 11.7132 31.7034 12.1972C32.1874 12.6812 32.4862 13.1392 32.7363 13.7856C32.9247 14.2728 33.1488 15.0037 33.2106 16.3484C33.2755 17.8037 33.2918 18.2422 33.2918 21.9257C33.2918 25.6092 33.2788 26.0477 33.2106 27.503C33.1488 28.8477 32.9247 29.5786 32.7363 30.0658C32.4862 30.709 32.1874 31.1702 31.7034 31.6542C31.2194 32.1382 30.7614 32.4371 30.115 32.6872C29.6277 32.8756 28.8969 33.0997 27.5521 33.1614C26.0969 33.2264 25.6616 33.2426 21.9748 33.2426C18.2881 33.2426 17.8528 33.2296 16.3976 33.1614C15.0528 33.0997 14.3219 32.8756 13.8347 32.6872C13.1916 32.4371 12.7303 32.1382 12.2463 31.6542C11.7623 31.1702 11.4635 30.7122 11.2134 30.0658C11.025 29.5786 10.8008 28.8477 10.7391 27.503C10.6742 26.0477 10.6579 25.6092 10.6579 21.9257C10.6579 18.2422 10.6709 17.8037 10.7391 16.3484C10.8008 15.0037 11.025 14.2728 11.2134 13.7856C11.4635 13.1424 11.7623 12.6812 12.2463 12.1972C12.7303 11.7132 13.1883 11.4143 13.8347 11.1642C14.3219 10.9758 15.0528 10.7517 16.3976 10.69C17.8528 10.625 18.2913 10.6088 21.9748 10.6088ZM21.9748 8.12061C18.2264 8.12061 17.7554 8.13685 16.2839 8.20506C14.8157 8.27327 13.812 8.5039 12.9317 8.84821C12.0254 9.20227 11.2556 9.67327 10.4858 10.4399C9.71917 11.2064 9.24493 11.9763 8.89411 12.8858C8.55305 13.7628 8.31917 14.7665 8.25096 16.238C8.18275 17.7095 8.1665 18.1805 8.1665 21.9289C8.1665 25.6774 8.18275 26.1484 8.25096 27.6199C8.31917 29.0881 8.5498 30.0918 8.89411 30.9721C9.24817 31.8784 9.71917 32.6482 10.4858 33.418C11.2523 34.1846 12.0222 34.6589 12.9317 35.0097C13.8087 35.3507 14.8124 35.5846 16.2839 35.6528C17.7554 35.721 18.2264 35.7373 21.9748 35.7373C25.7233 35.7373 26.1943 35.721 27.6658 35.6528C29.134 35.5846 30.1377 35.354 31.018 35.0097C31.9243 34.6556 32.6941 34.1846 33.4639 33.418C34.2305 32.6514 34.7048 31.8816 35.0556 30.9721C35.3966 30.0951 35.6305 29.0913 35.6987 27.6199C35.7669 26.1484 35.7832 25.6774 35.7832 21.9289C35.7832 18.1805 35.7669 17.7095 35.6987 16.238C35.6305 14.7698 35.3999 13.7661 35.0556 12.8858C34.7015 11.9795 34.2305 11.2097 33.4639 10.4399C32.6973 9.67327 31.9275 9.19903 31.018 8.84821C30.141 8.50715 29.1372 8.27327 27.6658 8.20506C26.1943 8.13685 25.7233 8.12061 21.9748 8.12061Z" fill="white"/>
<path d="M21.9749 14.8379C18.0608 14.8379 14.8872 18.0114 14.8872 21.9256C14.8872 25.8397 18.0608 29.0133 21.9749 29.0133C25.8891 29.0133 29.0626 25.8397 29.0626 21.9256C29.0626 18.0114 25.8891 14.8379 21.9749 14.8379ZM21.9749 26.5284C19.4348 26.5284 17.3721 24.469 17.3721 21.9256C17.3721 19.3822 19.4315 17.3228 21.9749 17.3228C24.5183 17.3228 26.5777 19.3822 26.5777 21.9256C26.5777 24.469 24.5183 26.5284 21.9749 26.5284Z" fill="white"/>
<path d="M29.3451 16.2119C30.26 16.2119 31.0017 15.4702 31.0017 14.5553C31.0017 13.6404 30.26 12.8987 29.3451 12.8987C28.4302 12.8987 27.6885 13.6404 27.6885 14.5553C27.6885 15.4702 28.4302 16.2119 29.3451 16.2119Z" fill="white"/>
</g>
<defs>
<clipPath id="clip0_214_5945">
<rect width="43.8515" height="43.8515" fill="white" transform="translate(0.0493164)"/>
</clipPath>
</defs>
</svg>
