<svg width="44" height="44" viewBox="0 0 44 44" fill="none" xmlns="http://www.w3.org/2000/svg">
<g clip-path="url(#clip0_214_5954)">
<path d="M22.0742 43.8712C34.1834 43.8712 43.9999 34.0548 43.9999 21.9455C43.9999 9.83626 34.1834 0.0197754 22.0742 0.0197754C9.96492 0.0197754 0.148438 9.83626 0.148438 21.9455C0.148438 34.0548 9.96492 43.8712 22.0742 43.8712Z" fill="#000505"/>
<path d="M34.3593 14.6987C34.3593 14.5721 34.3561 14.5656 34.2229 14.5688C33.9013 14.5688 33.583 14.5331 33.2679 14.4844C32.1213 14.3122 28.3988 12.36 27.7686 9.16696C27.7556 9.10524 27.6159 8.31267 27.6159 7.97485C27.6159 7.82543 27.6159 7.82218 27.4665 7.82218C27.4308 7.82218 27.3983 7.82218 27.3626 7.82218C25.9073 7.82218 24.4489 7.82218 22.9937 7.82218C22.7013 7.82218 22.7403 7.78645 22.7403 8.07879C22.7403 14.3934 22.7403 20.708 22.7403 27.0226C22.7403 27.2597 22.7338 27.4936 22.6916 27.7242C22.4707 28.9456 21.847 29.9038 20.7881 30.5567C19.8721 31.1219 18.8749 31.2843 17.8159 31.0732C17.4814 31.0082 17.1695 30.8816 16.8577 30.7581C16.8317 30.7354 16.8057 30.7126 16.783 30.6899C16.679 30.6022 16.5621 30.5275 16.4484 30.4495C15.1004 29.5173 14.4605 28.2212 14.6554 26.6004C14.8535 24.9567 15.7988 23.8393 17.3579 23.2644C17.8224 23.0922 18.3129 23.0208 18.8099 23.05C19.1315 23.0662 19.4498 23.1085 19.7584 23.1962C19.8656 23.2254 19.9241 23.1897 19.9306 23.076C19.9306 23.037 19.9306 22.9948 19.9306 22.9558C19.9306 21.8222 19.8883 19.347 19.8818 19.3405C19.8818 19.0157 19.8818 18.6876 19.8916 18.3628C19.8916 18.2686 19.8461 18.2523 19.7681 18.2426C19.1802 18.1744 18.5923 18.1581 18.0011 18.2036C17.1858 18.2621 16.3932 18.431 15.6234 18.7071C14.3955 19.1489 13.3204 19.831 12.3914 20.7405C11.5923 21.5233 10.9654 22.4263 10.5074 23.4463C10.0656 24.4208 9.81548 25.444 9.74402 26.5094C9.71479 26.9707 9.71804 27.4352 9.76351 27.8997C9.82198 28.5396 9.94541 29.1665 10.1403 29.7804C10.699 31.541 11.719 32.9832 13.1644 34.1298C13.3106 34.2467 13.4535 34.3734 13.6289 34.4481C13.7036 34.5131 13.7751 34.5781 13.8498 34.643C14.0837 34.8184 14.3338 34.9711 14.5969 35.0978C16.2145 35.8969 17.9199 36.2217 19.7162 36.0041C22.0484 35.7182 23.9909 34.6853 25.5176 32.9052C26.9565 31.2291 27.6549 29.2639 27.6679 27.0649C27.6874 23.9205 27.6711 20.7762 27.6744 17.6287C27.6744 17.554 27.6322 17.4468 27.7134 17.4078C27.7783 17.3786 27.8433 17.463 27.905 17.5052C29.0744 18.2751 30.338 18.8305 31.7055 19.1424C32.5013 19.3243 33.3036 19.4347 34.1222 19.4347C34.3788 19.4347 34.4145 19.4217 34.4145 19.1651C34.4145 18.0477 34.3561 14.9943 34.3593 14.6987Z" fill="white"/>
</g>
<defs>
<clipPath id="clip0_214_5954">
<rect width="43.8515" height="43.8515" fill="white" transform="translate(0.148438 0.0197754)"/>
</clipPath>
</defs>
</svg>
