<svg width="44" height="44" viewBox="0 0 44 44" fill="none" xmlns="http://www.w3.org/2000/svg">
<g clip-path="url(#clip0_214_5951)">
<path d="M22.0249 43.8515C34.1341 43.8515 43.9506 34.035 43.9506 21.9257C43.9506 9.81648 34.1341 0 22.0249 0C9.91561 0 0.0991211 9.81648 0.0991211 21.9257C0.0991211 34.035 9.91561 43.8515 22.0249 43.8515Z" fill="#000505"/>
<path d="M36.0314 14.8899C35.6968 13.6328 34.7061 12.6421 33.4457 12.3043C31.1655 11.6936 22.0249 11.6936 22.0249 11.6936C22.0249 11.6936 12.8843 11.6936 10.604 12.3043C9.34692 12.6421 8.35621 13.6296 8.01839 14.8899C7.40771 17.1702 7.40771 21.9256 7.40771 21.9256C7.40771 21.9256 7.40771 26.6811 8.01839 28.9613C8.35296 30.2184 9.34368 31.2091 10.604 31.5469C12.8843 32.1576 22.0249 32.1576 22.0249 32.1576C22.0249 32.1576 31.1655 32.1576 33.4457 31.5469C34.7028 31.2091 35.6935 30.2217 36.0314 28.9613C36.642 26.6811 36.642 21.9256 36.642 21.9256C36.642 21.9256 36.642 17.1702 36.0314 14.8899ZM19.1014 26.3108V17.5405L26.6959 21.9256L19.1014 26.3108Z" fill="white"/>
</g>
<defs>
<clipPath id="clip0_214_5951">
<rect width="43.8515" height="43.8515" fill="white" transform="translate(0.0991211)"/>
</clipPath>
</defs>
</svg>
